PathFileType	4	(X/Y/Z)	 s11c0202.trc
DataRate	CameraRate	NumFrames	NumMarkers	Units	OrigDataRate	OrigDataStartFrame	OrigNumFrames
200	200	5	48	mm	200	1251	2000
Frame#	Time	racr			lacr			c7			jug			rlel			rdr			llel			ldr			s2			lic			ric			lasi			rasi			rpsi			lpsi			rgt			lgt			rth1			rth2			rth3			rth4			rlfc			rmfc			rsh1			rsh2			rsh3			rsh4			rlmal			rcal			rtoe			rmt5			lth1			lth2			lth4			lth3			llfc			lmfc			llmal			lcal			lmt5			lsh1			lsh2			lsh3			lsh4			ltoe			SBIKE			LBIKE			RBIKE			
		X1	Y1	Z1	X2	Y2	Z2	X3	Y3	Z3	X4	Y4	Z4	X5	Y5	Z5	X6	Y6	Z6	X7	Y7	Z7	X8	Y8	Z8	X9	Y9	Z9	X10	Y10	Z10	X11	Y11	Z11	X12	Y12	Z12	X13	Y13	Z13	X14	Y14	Z14	X15	Y15	Z15	X16	Y16	Z16	X17	Y17	Z17	X18	Y18	Z18	X19	Y19	Z19	X20	Y20	Z20	X21	Y21	Z21	X22	Y22	Z22	X23	Y23	Z23	X24	Y24	Z24	X25	Y25	Z25	X26	Y26	Z26	X27	Y27	Z27	X28	Y28	Z28	X29	Y29	Z29	X30	Y30	Z30	X31	Y31	Z31	X32	Y32	Z32	X33	Y33	Z33	X34	Y34	Z34	X35	Y35	Z35	X36	Y36	Z36	X37	Y37	Z37	X38	Y38	Z38	X39	Y39	Z39	X40	Y40	Z40	X41	Y41	Z41	X42	Y42	Z42	X43	Y43	Z43	X44	Y44	Z44	X45	Y45	Z45	X46	Y46	Z46	X47	Y47	Z47	X48	Y48	Z48	
1251	6.2550	520.598396	1331.020559	-68.517446	543.720647	1308.981769	-370.740122	470.891035	1439.345570	-231.301908	479.095506	1253.911850	-223.544939	553.308979	1114.341182	101.708289	761.955462	975.967997	-39.002080	528.959424	1076.439148	-579.997672	791.277673	955.540611	-466.703328	-93.985565	1228.734735	-298.282464	135.273833	1212.462461	-485.202067	100.839452	1246.995399	-79.575895	157.434041	1141.445173	-455.927470	125.851509	1189.899841	-124.051771	-47.242725	1305.135295	-254.688498	-47.411881	1289.700248	-340.809546	69.479679	1132.322796	-57.092621	23.005769	1076.843426	-493.370050	204.713231	1077.687794	-58.302521	293.745618	1072.836653	-67.416332	366.765849	1025.661553	-73.643309	303.539933	1106.161704	-82.358127	472.349741	982.908171	-90.557588	479.377129	954.703523	-224.162516	422.670891	832.037569	-70.194524	406.452803	745.471259	-82.602754	351.547326	678.213156	-79.257101	431.127155	736.486248	-112.234329	280.898587	548.411154	-85.888175	212.432738	539.964084	-130.655453	488.384585	457.131260	-132.658085	415.739797	441.300774	-62.552872	106.320156	947.106349	-506.396209	170.299605	890.484428	-503.240181	201.841458	909.817268	-502.405140	198.682583	805.782687	-491.608822	268.157906	687.718098	-460.295712	294.554953	688.303526	-334.474144	26.397290	332.786062	-415.062486	-36.418112	300.695792	-375.687681	149.174333	208.130017	-445.778147	195.431599	585.825135	-472.989045	171.449418	505.761721	-451.871062	108.624604	444.697089	-441.697028	200.379888	494.155060	-429.923062	248.443308	209.606404	-378.874299	-204.964136	953.471890	-265.251341	1.429897	82.487318	-461.305540	-15.300187	81.704368	-62.884313	
1252	6.2600	519.518099	1330.569360	-68.151908	544.093456	1305.984633	-369.319379	470.249838	1438.744267	-231.846809	478.067102	1253.156790	-222.277149	555.057819	1115.339588	102.137904	761.987166	975.740375	-38.036930	528.946675	1075.090575	-580.921008	790.113700	955.110810	-468.242149	-95.040714	1228.867780	-296.550376	134.162227	1212.242211	-485.682765	100.198851	1245.878512	-80.079139	156.377391	1140.202234	-457.590410	125.782600	1187.627643	-124.346435	-47.153407	1304.524598	-255.136217	-47.844173	1289.358727	-341.396618	68.473054	1129.935494	-57.987220	22.140982	1075.711368	-492.462675	203.511721	1072.858836	-59.234083	292.464721	1066.366950	-68.195434	364.718176	1017.774008	-74.391877	302.937869	1099.659605	-83.087604	469.055777	973.192304	-91.260374	476.612146	943.850327	-224.152579	420.009674	820.807331	-69.958649	404.603744	734.063499	-82.018392	350.429631	666.144443	-78.223675	429.125163	725.316580	-111.908915	282.418413	534.919379	-84.907183	214.230907	523.444738	-130.120482	492.991470	453.524122	-132.337864	421.458771	434.200990	-61.975450	109.250757	947.802424	-506.540547	174.590520	892.765168	-503.200324	205.610267	912.901808	-502.074217	205.016785	808.758264	-492.067103	275.825796	691.985256	-460.813477	302.422889	692.763672	-335.117311	24.746856	344.213474	-415.060688	-38.901044	314.496568	-375.763510	143.432451	215.705314	-445.901464	200.086193	592.017243	-473.100572	174.185067	512.583736	-452.022286	109.834913	453.113228	-441.746477	202.818304	500.210609	-430.050227	242.635971	213.458409	-379.001183	-204.992005	953.410681	-265.450835	1.434830	82.443596	-461.331291	-15.351579	81.700796	-62.900205	
1253	6.2650	518.423416	1330.221723	-67.624250	544.291057	1304.157873	-368.762991	469.580174	1438.299449	-232.578611	477.264076	1252.637012	-221.383985	556.647304	1116.403190	102.283184	761.883989	975.336234	-37.126315	528.540677	1074.586039	-581.094367	788.289255	953.476400	-468.849331	-94.896725	1227.735302	-297.596660	133.017246	1211.935320	-486.008556	99.733747	1244.453538	-80.550300	155.464650	1139.003158	-459.093353	126.250150	1185.121188	-125.477884	-46.939357	1303.500893	-255.775767	-48.305997	1288.657597	-341.820708	67.768682	1127.098047	-58.900272	22.485728	1074.914325	-492.715114	202.430490	1067.605170	-60.013288	291.133736	1059.510209	-68.827175	362.590154	1009.299376	-75.238605	302.257631	1093.054817	-83.600015	465.773255	962.651720	-91.923486	473.695402	932.403713	-223.993893	417.194797	808.859539	-69.813624	402.934178	721.958966	-80.845005	349.402565	653.410631	-77.284596	427.171800	713.394771	-111.654219	283.955126	521.447219	-84.387186	215.427191	507.339565	-128.899368	497.205513	449.074486	-132.079000	426.737996	426.796772	-61.447348	112.406600	948.562929	-506.503660	179.087224	895.163187	-502.995373	209.562906	916.019580	-501.571963	211.541458	811.775248	-491.982616	283.408340	696.316660	-461.139582	310.019562	697.322232	-335.378877	23.733296	355.639381	-415.130267	-40.638495	328.470544	-375.863208	138.222087	223.559977	-446.029134	205.003550	598.546527	-473.025069	177.340338	519.922184	-452.330363	111.564570	461.668584	-441.778090	205.406090	505.528969	-429.048642	237.152604	217.793595	-379.040214	-204.996546	953.348976	-265.607498	1.430547	82.358696	-461.361217	-15.533518	81.536319	-62.963880	
1254	6.2700	517.380896	1330.108651	-67.128736	544.261857	1303.585101	-369.012057	469.079648	1438.014118	-233.492658	476.857729	1252.358094	-220.745395	558.108409	1117.403090	101.870945	761.649197	974.676827	-36.177389	527.867212	1074.426474	-581.009317	786.104961	950.733650	-468.521353	-95.309457	1226.583416	-298.183692	131.879681	1211.323354	-486.166866	99.614944	1242.558224	-81.193513	154.473922	1137.763966	-460.502452	126.394471	1182.496295	-125.382085	-47.162711	1302.483272	-256.170650	-48.878061	1287.681457	-342.218645	67.214672	1124.201872	-59.582729	23.135905	1073.376758	-491.582978	201.348574	1062.078776	-60.632605	289.908913	1052.034640	-69.275793	360.518280	999.631266	-76.509375	301.565847	1085.212290	-83.366018	462.120883	951.248487	-92.380585	469.090803	920.234964	-222.554148	414.319853	796.306901	-69.699668	400.875566	709.438897	-80.581935	348.643263	639.987038	-76.593749	425.293630	701.021907	-111.587415	285.592431	507.458626	-84.568596	217.452577	491.078987	-128.899834	501.015160	443.667976	-131.846226	431.447003	418.673084	-61.071361	115.879294	949.484363	-506.357702	183.727077	897.513138	-502.611168	213.736402	919.067000	-500.847485	217.956583	814.831911	-491.974025	290.975741	700.863108	-461.267781	317.137885	701.933867	-335.418549	23.481261	367.344724	-415.328753	-41.581400	342.884511	-376.047855	133.532476	231.704730	-446.215890	210.175123	605.304109	-472.899622	180.827181	527.308013	-452.259889	113.857114	470.485017	-441.730695	208.692299	512.200188	-429.116667	232.160643	222.304655	-379.138440	-204.995450	953.269413	-265.769806	1.440369	82.321016	-461.400381	-15.496232	81.488977	-62.961237	
1255	6.2750	516.466296	1330.397696	-66.663480	543.993173	1303.851797	-369.743143	468.664324	1437.806120	-234.683859	476.957429	1252.180301	-220.266185	559.316050	1118.350643	101.295757	761.392419	973.902972	-35.330210	526.904171	1074.179125	-580.828699	784.218939	947.533002	-467.149472	-95.708897	1225.094995	-298.512107	130.832286	1210.772595	-486.175010	99.555560	1240.528041	-81.516008	153.400840	1136.374243	-461.538413	126.840447	1179.761745	-125.440841	-47.399540	1301.064171	-256.659262	-49.536196	1286.378523	-342.376596	67.018311	1121.024228	-60.202912	23.956003	1072.099017	-491.812732	199.698725	1055.955269	-61.019799	288.714125	1044.065234	-69.646707	357.740900	990.193684	-76.419869	301.665708	1075.606318	-83.715201	458.111057	939.265682	-91.969141	465.560064	907.867272	-222.027960	411.325523	783.119119	-69.769692	398.990128	696.121825	-80.755649	347.871367	626.022122	-76.231681	423.521261	688.032346	-112.029365	287.243942	493.552194	-84.831006	219.439649	475.086333	-129.061103	504.474044	437.191584	-131.567102	435.701307	410.005336	-60.793482	119.587448	950.486960	-506.043226	188.520201	899.953913	-502.164346	218.045361	922.010086	-500.032870	224.464254	817.891590	-491.766630	298.454520	705.626926	-461.365855	323.877158	706.890378	-335.335841	24.073182	379.185234	-415.501887	-41.636083	357.637261	-376.241438	129.514164	240.121744	-446.289119	215.628905	612.520383	-472.758041	184.806326	534.981990	-452.202826	116.816853	479.478083	-441.589348	212.452097	519.333225	-429.235363	227.609091	227.079352	-379.139009	-204.963630	953.140336	-265.762773	1.421975	82.190363	-461.399045	-15.355549	81.452744	-62.956865	
